<mxfile host="app.diagrams.net" modified="2024-06-11T18:59:59.202Z" agent="Mozilla/5.0 (Macintosh; Intel Mac OS X 10_15_7) AppleWebKit/537.36 (KHTML, like Gecko) Chrome/125.0.0.0 Safari/537.36" etag="yRIIiMsPsLPfgfmoyCy0" version="24.5.2" type="github">
  <diagram id="C5RBs43oDa-KdzZeNtuy" name="Page-1">
    <mxGraphModel dx="1513" dy="954" grid="1" gridSize="10" guides="1" tooltips="1" connect="1" arrows="1" fold="1" page="1" pageScale="1" pageWidth="827" pageHeight="1169" math="0" shadow="0">
      <root>
        <mxCell id="WIyWlLk6GJQsqaUBKTNV-0" />
        <mxCell id="WIyWlLk6GJQsqaUBKTNV-1" parent="WIyWlLk6GJQsqaUBKTNV-0" />
        <mxCell id="p9pdIH8C1fkwlVelL0Do-0" value="Course Discovery:" style="rounded=0;whiteSpace=wrap;html=1;" vertex="1" parent="WIyWlLk6GJQsqaUBKTNV-1">
          <mxGeometry x="-390" y="720" width="120" height="60" as="geometry" />
        </mxCell>
        <mxCell id="p9pdIH8C1fkwlVelL0Do-1" value="User Registration" style="rounded=0;whiteSpace=wrap;html=1;" vertex="1" parent="WIyWlLk6GJQsqaUBKTNV-1">
          <mxGeometry x="-390" y="440" width="120" height="60" as="geometry" />
        </mxCell>
        <mxCell id="p9pdIH8C1fkwlVelL0Do-2" value="Login/Logout" style="rounded=0;whiteSpace=wrap;html=1;" vertex="1" parent="WIyWlLk6GJQsqaUBKTNV-1">
          <mxGeometry x="-390" y="510" width="120" height="60" as="geometry" />
        </mxCell>
        <mxCell id="p9pdIH8C1fkwlVelL0Do-3" value="Course Enrollment" style="rounded=0;whiteSpace=wrap;html=1;" vertex="1" parent="WIyWlLk6GJQsqaUBKTNV-1">
          <mxGeometry x="-390" y="790" width="120" height="60" as="geometry" />
        </mxCell>
        <mxCell id="p9pdIH8C1fkwlVelL0Do-4" value="Learning Dashboard" style="rounded=0;whiteSpace=wrap;html=1;" vertex="1" parent="WIyWlLk6GJQsqaUBKTNV-1">
          <mxGeometry x="-390" y="650" width="120" height="60" as="geometry" />
        </mxCell>
        <mxCell id="p9pdIH8C1fkwlVelL0Do-5" value="Interactive Lectures" style="rounded=0;whiteSpace=wrap;html=1;" vertex="1" parent="WIyWlLk6GJQsqaUBKTNV-1">
          <mxGeometry x="-390" y="930" width="120" height="60" as="geometry" />
        </mxCell>
        <mxCell id="p9pdIH8C1fkwlVelL0Do-6" value="Assignments and Assessments" style="rounded=0;whiteSpace=wrap;html=1;" vertex="1" parent="WIyWlLk6GJQsqaUBKTNV-1">
          <mxGeometry x="-390" y="1000" width="120" height="60" as="geometry" />
        </mxCell>
        <mxCell id="p9pdIH8C1fkwlVelL0Do-7" value="Collaboration Spaces" style="rounded=0;whiteSpace=wrap;html=1;" vertex="1" parent="WIyWlLk6GJQsqaUBKTNV-1">
          <mxGeometry x="-390" y="1070" width="120" height="60" as="geometry" />
        </mxCell>
        <mxCell id="p9pdIH8C1fkwlVelL0Do-8" value="Grading and Feedback" style="rounded=0;whiteSpace=wrap;html=1;" vertex="1" parent="WIyWlLk6GJQsqaUBKTNV-1">
          <mxGeometry x="-390" y="1210" width="120" height="60" as="geometry" />
        </mxCell>
        <mxCell id="p9pdIH8C1fkwlVelL0Do-9" value="Resource Library" style="rounded=0;whiteSpace=wrap;html=1;" vertex="1" parent="WIyWlLk6GJQsqaUBKTNV-1">
          <mxGeometry x="-390" y="860" width="120" height="60" as="geometry" />
        </mxCell>
        <mxCell id="p9pdIH8C1fkwlVelL0Do-10" value="Technical Support&amp;nbsp;" style="rounded=0;whiteSpace=wrap;html=1;" vertex="1" parent="WIyWlLk6GJQsqaUBKTNV-1">
          <mxGeometry x="-390" y="1350" width="120" height="60" as="geometry" />
        </mxCell>
        <mxCell id="p9pdIH8C1fkwlVelL0Do-11" value="Profile Management" style="rounded=0;whiteSpace=wrap;html=1;" vertex="1" parent="WIyWlLk6GJQsqaUBKTNV-1">
          <mxGeometry x="-390" y="580" width="120" height="60" as="geometry" />
        </mxCell>
        <mxCell id="p9pdIH8C1fkwlVelL0Do-12" value="Social Learning Features" style="rounded=0;whiteSpace=wrap;html=1;" vertex="1" parent="WIyWlLk6GJQsqaUBKTNV-1">
          <mxGeometry x="-390" y="1140" width="120" height="60" as="geometry" />
        </mxCell>
        <mxCell id="p9pdIH8C1fkwlVelL0Do-13" value="Course Completion and Certification" style="rounded=0;whiteSpace=wrap;html=1;" vertex="1" parent="WIyWlLk6GJQsqaUBKTNV-1">
          <mxGeometry x="-390" y="1280" width="120" height="60" as="geometry" />
        </mxCell>
        <mxCell id="p9pdIH8C1fkwlVelL0Do-14" value="E Learning Platform" style="rounded=0;whiteSpace=wrap;html=1;" vertex="1" parent="WIyWlLk6GJQsqaUBKTNV-1">
          <mxGeometry x="-390" y="370" width="120" height="60" as="geometry" />
        </mxCell>
      </root>
    </mxGraphModel>
  </diagram>
</mxfile>
